<svg width="515" height="165" viewBox="0 0 515 165" fill="none" xmlns="http://www.w3.org/2000/svg">
<circle cx="101.376" cy="22.0327" r="20" stroke="#667085" stroke-width="2"/>
<circle cx="101.376" cy="142.033" r="20" stroke="#667085" stroke-width="2"/>
<circle cx="21.376" cy="102.033" r="20" stroke="#667085" stroke-width="2"/>
<circle cx="141.376" cy="102.033" r="20" stroke="#667085" stroke-width="2"/>
<circle cx="193.376" cy="82.0327" r="20" stroke="#667085" stroke-width="2"/>
<circle cx="313.376" cy="82.0327" r="20" stroke="#667085" stroke-width="2"/>
<circle cx="253.376" cy="22.0327" r="20" stroke="#667085" stroke-width="2"/>
<circle cx="253.376" cy="142.033" r="20" stroke="#667085" stroke-width="2"/>
<path d="M1.37598 102.033C1.37598 90.987 10.3303 82.0327 21.376 82.0327H141.376C152.422 82.0327 161.376 90.987 161.376 102.033C161.376 113.078 152.422 122.033 141.376 122.033H21.376C10.3303 122.033 1.37598 113.078 1.37598 102.033Z" stroke="#667085" stroke-width="2"/>
<path d="M101.376 162.033C90.3303 162.033 81.376 153.078 81.376 142.033L81.376 22.0327C81.376 10.987 90.3303 2.03271 101.376 2.03271C112.422 2.03271 121.376 10.987 121.376 22.0327L121.376 142.033C121.376 153.078 112.422 162.033 101.376 162.033Z" stroke="#667085" stroke-width="2"/>
<path d="M7.51811 116.028C-0.292375 108.217 -0.292374 95.5541 7.51811 87.7436L87.0867 8.17506C94.8971 0.364573 107.56 0.364566 115.371 8.17505C123.181 15.9855 123.181 28.6488 115.371 36.4593L35.8024 116.028C27.9919 123.838 15.3286 123.838 7.51811 116.028Z" stroke="#667085" stroke-width="2"/>
<circle cx="453.376" cy="22.0327" r="20" stroke="#667085" stroke-width="2"/>
<circle cx="453.376" cy="142.033" r="20" stroke="#667085" stroke-width="2"/>
<circle cx="373.376" cy="102.033" r="20" stroke="#667085" stroke-width="2"/>
<circle cx="493.376" cy="102.033" r="20" stroke="#667085" stroke-width="2"/>
<path d="M353.376 102.033C353.376 90.987 362.33 82.0327 373.376 82.0327H493.376C504.422 82.0327 513.376 90.987 513.376 102.033C513.376 113.078 504.422 122.033 493.376 122.033H373.376C362.33 122.033 353.376 113.078 353.376 102.033Z" stroke="#667085" stroke-width="2"/>
<path d="M453.376 162.033C442.33 162.033 433.376 153.078 433.376 142.033L433.376 22.0327C433.376 10.987 442.33 2.03271 453.376 2.03271C464.422 2.03271 473.376 10.987 473.376 22.0327L473.376 142.033C473.376 153.078 464.422 162.033 453.376 162.033Z" stroke="#667085" stroke-width="2"/>
<path d="M359.518 116.028C351.708 108.217 351.708 95.5541 359.518 87.7436L439.087 8.17506C446.897 0.364573 459.56 0.364566 467.371 8.17505C475.181 15.9855 475.181 28.6488 467.371 36.4593L387.802 116.028C379.992 123.838 367.329 123.838 359.518 116.028Z" stroke="#667085" stroke-width="2"/>
<circle cx="253.376" cy="82.0327" r="80" stroke="#667085" stroke-width="2"/>
<circle cx="253.376" cy="82.0327" r="40" stroke="#667085" stroke-width="2"/>
<line x1="0.375977" y1="1.03271" x2="513.376" y2="1.03276" stroke="#667085" stroke-width="2"/>
<line x1="0.375976" y1="163.033" x2="513.376" y2="163.033" stroke="#667085" stroke-width="2"/>
</svg>
