<svg width="494" height="170" viewBox="0 0 494 170" fill="none" xmlns="http://www.w3.org/2000/svg">
<line x1="0.225586" y1="4.17561" x2="493.526" y2="4.17565" stroke="#667085" stroke-width="1.9232"/>
<circle cx="186.876" cy="85.8823" r="20" stroke="#667085" stroke-width="2"/>
<circle cx="306.876" cy="85.8823" r="20" stroke="#667085" stroke-width="2"/>
<circle cx="246.876" cy="25.8823" r="20" stroke="#667085" stroke-width="2"/>
<circle cx="246.876" cy="145.882" r="20" stroke="#667085" stroke-width="2"/>
<circle cx="246.876" cy="85.8823" r="80" stroke="#667085" stroke-width="2"/>
<circle cx="246.876" cy="85.8823" r="40" stroke="#667085" stroke-width="2"/>
<circle cx="79.4914" cy="150.555" r="16.4972" stroke="#667085" stroke-width="1.64972"/>
<circle cx="115.909" cy="23.3673" r="17.8819" stroke="#667085" stroke-width="1.64972"/>
<path d="M46.1404 161.529L46.1464 161.531C55.7501 165.887 66.7171 168.052 79.0261 168.052C92.0645 168.052 103.46 165.627 113.182 160.739L113.186 160.737C122.893 155.805 130.449 148.994 135.821 140.304C141.249 131.555 143.926 121.554 143.875 110.332C143.926 100.113 141.75 91.0556 137.316 83.1892C132.945 75.291 126.959 69.091 119.364 64.6078C111.808 60.1163 103.208 57.8815 93.5935 57.8815C85.402 57.8815 78.1614 59.5098 71.9005 62.7986C66.5325 65.5741 62.4754 69.0094 59.7942 73.1268L62.5847 41.5947H132.956H133.956V40.5947V6.19092V5.19092H132.956H26.3356H25.404L25.3381 6.12017L19.1392 93.5245L19.0767 94.4059L19.9437 94.5764L57.7569 102.015L58.525 102.166L58.8561 101.457C60.5737 97.7762 63.242 94.9079 66.8895 92.8377L66.8933 92.8356C70.6134 90.7027 74.6515 89.6361 79.0261 89.6361C83.2676 89.6361 86.967 90.5579 90.1544 92.3722L90.1543 92.3723L90.1646 92.3779C93.3527 94.1436 95.854 96.666 97.6772 99.9676L97.6804 99.9732C99.4912 103.203 100.392 107.053 100.342 111.561L100.342 111.572L100.342 111.583C100.392 116.036 99.4923 119.89 97.6773 123.176C95.8537 126.479 93.351 129.029 90.1596 130.846C86.9715 132.611 83.27 133.508 79.0261 133.508C73.5499 133.508 68.8656 131.945 64.9242 128.842C61.0882 125.782 59.0966 121.7 58.9495 116.503L58.922 115.531H57.9499H16.1074H15.0969L15.1075 116.542C15.2128 126.598 18.0075 135.529 23.5046 143.299L23.5072 143.303C29.0429 151.053 36.5988 157.125 46.1404 161.529Z" stroke="#667085" stroke-width="2"/>
<circle cx="414.26" cy="150.555" r="16.4972" stroke="#667085" stroke-width="1.64972"/>
<circle cx="450.678" cy="23.3673" r="17.8819" stroke="#667085" stroke-width="1.64972"/>
<path d="M380.909 161.529L380.915 161.531C390.519 165.887 401.486 168.052 413.795 168.052C426.833 168.052 438.228 165.627 447.95 160.739L447.954 160.737C457.662 155.805 465.217 148.994 470.589 140.304C476.018 131.555 478.695 121.554 478.643 110.332C478.695 100.113 476.519 91.0556 472.085 83.1892C467.714 75.291 461.727 69.091 454.133 64.6078C446.576 60.1163 437.976 57.8815 428.362 57.8815C420.171 57.8815 412.93 59.5098 406.669 62.7986C401.301 65.5741 397.244 69.0094 394.563 73.1268L397.353 41.5947H467.725H468.725V40.5947V6.19092V5.19092H467.725H361.104H360.173L360.107 6.12017L353.908 93.5245L353.845 94.4059L354.712 94.5764L392.525 102.015L393.294 102.166L393.625 101.457C395.342 97.7762 398.011 94.9079 401.658 92.8377L401.662 92.8356C405.382 90.7027 409.42 89.6361 413.795 89.6361C418.036 89.6361 421.736 90.5579 424.923 92.3722L424.923 92.3723L424.933 92.3779C428.121 94.1436 430.623 96.666 432.446 99.9676L432.449 99.9732C434.26 103.203 435.161 107.053 435.111 111.561L435.111 111.572L435.111 111.583C435.161 116.036 434.261 119.89 432.446 123.176C430.622 126.479 428.12 129.029 424.928 130.846C421.74 132.611 418.039 133.508 413.795 133.508C408.318 133.508 403.634 131.945 399.693 128.842C395.857 125.782 393.865 121.7 393.718 116.503L393.691 115.531H392.718H350.876H349.865L349.876 116.542C349.981 126.598 352.776 135.529 358.273 143.299L358.276 143.303C363.812 151.053 371.367 157.125 380.909 161.529Z" stroke="#667085" stroke-width="2"/>
<line x1="0.225586" y1="167.908" x2="493.526" y2="167.908" stroke="#667085" stroke-width="1.9232"/>
</svg>
