<svg width="55" height="18" viewBox="0 0 55 18" fill="none" xmlns="http://www.w3.org/2000/svg">
<line x1="1.49365" y1="0.500732" x2="1.49365" y2="18" stroke="white"/>
<line x1="3.00781" y1="0.500732" x2="3.00781" y2="18" stroke="#DBDBDB"/>
<line x1="4.86572" y1="0.500732" x2="4.86572" y2="17.0137" stroke="white"/>
<line x1="6.65479" y1="0.500732" x2="6.65478" y2="17.0137" stroke="#DBDBDB"/>
<line x1="9.5127" y1="0.500732" x2="9.51269" y2="17.0137" stroke="white" stroke-width="3"/>
<line x1="10.9897" y1="0.500732" x2="10.9897" y2="17.0137" stroke="#DBDBDB"/>
<line x1="13.123" y1="0.500732" x2="13.123" y2="17.0137" stroke="white"/>
<line x1="14.3618" y1="0.500732" x2="14.3618" y2="17.0137" stroke="#DBDBDB"/>
<line x1="16.2197" y1="0.500732" x2="16.2197" y2="17.0137" stroke="white"/>
<line x1="18.9038" y1="0.500732" x2="18.9038" y2="17.0137" stroke="white"/>
<line x1="21.312" y1="0.500732" x2="21.312" y2="17.0137" stroke="white"/>
<line x1="22.4819" y1="0.500732" x2="22.4819" y2="17.0137" stroke="#DBDBDB"/>
<line x1="24.8398" y1="0.500732" x2="24.8398" y2="17.0137" stroke="white" stroke-width="2"/>
<line x1="26.4043" y1="0.500732" x2="26.4043" y2="17.0137" stroke="white"/>
<line x1="27.8496" y1="0.500732" x2="27.8496" y2="18" stroke="white"/>
<line x1="28.626" y1="0.500732" x2="28.626" y2="18" stroke="#DBDBDB"/>
<line x1="29.7959" y1="0.500732" x2="29.7959" y2="18" stroke="white"/>
<line x1="31.585" y1="0.500732" x2="31.585" y2="17.0137" stroke="white"/>
<line x1="33.9937" y1="0.500732" x2="33.9937" y2="17.0137" stroke="white"/>
<line x1="35.8008" y1="0.500732" x2="35.8008" y2="17.0137" stroke="white" stroke-width="2"/>
<line x1="36.333" y1="0.500732" x2="36.333" y2="17.0137" stroke="white"/>
<line x1="39.6914" y1="0.500733" x2="39.6914" y2="17.0137" stroke="#DADADA" stroke-width="4"/>
<line x1="40.8062" y1="0.500732" x2="40.8062" y2="17.0137" stroke="white"/>
<line x1="41.563" y1="0.500732" x2="41.563" y2="17.0137" stroke="#DBDBDB"/>
<line x1="44.3843" y1="0.500732" x2="44.3843" y2="17.0137" stroke="white"/>
<line x1="46.1045" y1="0.500732" x2="46.1045" y2="17.0137" stroke="white"/>
<line x1="47.8252" y1="0.500732" x2="47.8252" y2="17.0137" stroke="#DBDBDB"/>
<line x1="49.7515" y1="0.500732" x2="49.7515" y2="17.0137" stroke="white"/>
<line x1="51.4722" y1="0.500732" x2="51.4722" y2="17.0137" stroke="#DBDBDB"/>
<line x1="53.3301" y1="0.500732" x2="53.3301" y2="18" stroke="white"/>
<line x1="54.5" y1="0.500732" x2="54.5" y2="18" stroke="white"/>
</svg>
