<svg width="124" height="40" viewBox="0 0 124 40" fill="none" xmlns="http://www.w3.org/2000/svg" react="true">
<path d="M40.2525 9.07129H43.3805V31.9007H39.9068L25.8428 13.4668V31.9007H22.7148V9.07129H26.2208L40.2525 27.4973V9.07129Z" fill="white"/>
<path d="M52.568 15.6332C54.5547 15.538 56.5147 16.1166 58.1245 17.2735C58.8112 17.815 59.3581 18.5104 59.7202 19.3023C60.0823 20.0942 60.2492 20.96 60.2071 21.8282V31.9012H57.2239V30.1813C56.5093 30.9099 55.6466 31.4797 54.6928 31.8531C53.7391 32.2265 52.716 32.3949 51.6916 32.3471C50.0161 32.4285 48.361 31.955 46.9875 31.0014C46.3885 30.5429 45.9119 29.9461 45.5994 29.2632C45.2868 28.5803 45.1477 27.8321 45.1943 27.0837C45.138 26.3189 45.2904 25.5531 45.6356 24.8667C45.9808 24.1802 46.5061 23.5983 47.1564 23.1819C48.6901 22.3127 50.4406 21.8904 52.2062 21.9636H57.248C57.248 19.5748 55.696 18.3883 52.5922 18.3883C51.6386 18.3738 50.6945 18.5782 49.8341 18.9855C49.0717 19.3295 48.4606 19.9347 48.1133 20.6896H44.8164C45.2289 19.136 46.2391 17.8041 47.6308 16.9789C49.1117 16.0696 50.8259 15.6024 52.568 15.6332ZM57.2239 25.5708V24.5436H52.1499C49.4695 24.5436 48.1293 25.3903 48.1293 27.0837C48.1293 28.7771 49.4025 29.6132 51.9489 29.592C53.3134 29.6645 54.6617 29.271 55.7684 28.4772C56.2277 28.143 56.5994 27.7047 56.8527 27.1991C57.1059 26.6934 57.2331 26.1351 57.2239 25.5708Z" fill="white"/>
<path d="M85.7798 31.901V22.6801C85.8426 21.5362 85.463 20.4115 84.7184 19.5348C84.3139 19.1373 83.8287 18.8295 83.295 18.6318C82.7613 18.4342 82.1912 18.3511 81.6226 18.3881C80.9794 18.3855 80.3422 18.5102 79.7484 18.755C79.1546 18.9998 78.6162 19.3596 78.1649 19.8135C77.6622 20.3144 77.2709 20.914 77.0161 21.5736C76.7613 22.2332 76.6486 22.9383 76.6853 23.6436V31.901H73.694V22.6801C73.7568 21.5362 73.3772 20.4115 72.6326 19.5348C72.2309 19.1404 71.7496 18.8344 71.2203 18.6369C70.691 18.4393 70.1255 18.3545 69.5609 18.3881C68.9223 18.3825 68.2891 18.5045 67.6992 18.7466C67.1093 18.9888 66.5747 19.3462 66.1273 19.7975C65.6369 20.2817 65.2535 20.8617 65.0016 21.5005C64.7496 22.1393 64.6346 22.823 64.6639 23.5082V31.901H61.6484V16.0789H64.6317V17.7989C65.2626 17.0713 66.0543 16.4974 66.9454 16.1218C67.8365 15.7462 68.803 15.5789 69.77 15.633C72.4503 15.633 74.4311 16.6204 75.7124 18.5951C76.4167 17.6447 77.344 16.8783 78.4144 16.3622C79.4847 15.8461 80.6659 15.5958 81.8558 15.633C82.7842 15.5845 83.7127 15.728 84.5821 16.0543C85.4515 16.3805 86.2428 16.8825 86.9056 17.5281C87.5336 18.189 88.0216 18.9677 88.3406 19.8184C88.6596 20.6691 88.8033 21.5744 88.7631 22.481V31.901H85.7798Z" fill="white"/>
<path d="M98.6294 29.5923C100.624 29.5923 102.031 28.8836 102.867 27.4663H106.083C105.561 28.9327 104.566 30.1888 103.253 31.0416C101.872 31.9244 100.257 32.3791 98.6133 32.3475C97.5029 32.3757 96.3985 32.1783 95.3681 31.7674C94.3378 31.3565 93.4034 30.741 92.6226 29.9586C91.829 29.1699 91.2058 28.2294 90.791 27.1945C90.3763 26.1595 90.1787 25.0518 90.2103 23.9387C90.1821 22.8455 90.3745 21.7576 90.7763 20.739C91.1781 19.7203 91.7812 18.7913 92.5503 18.0064C93.3081 17.2227 94.2235 16.6051 95.2374 16.1936C96.2513 15.7821 97.3411 15.5859 98.4364 15.6176C99.4925 15.5942 100.541 15.7953 101.512 16.2074C102.483 16.6195 103.354 17.233 104.065 18.0064C105.558 19.5688 106.365 21.6533 106.309 23.8034C106.324 24.2399 106.3 24.677 106.236 25.1093H93.3544C93.5204 26.3706 94.1503 27.527 95.1236 28.3571C96.0969 29.1872 97.3451 29.6327 98.6294 29.6083V29.5923ZM98.4605 18.3886C97.2215 18.3475 96.0078 18.7425 95.035 19.5034C94.1332 20.2688 93.5585 21.3446 93.4268 22.5134H103.221C103.092 21.3613 102.55 20.2933 101.693 19.5034C100.8 18.7346 99.6426 18.3354 98.4605 18.3886Z" fill="white"/>
<path d="M123.219 20.5543H119.954C119.263 19.1051 117.647 18.3884 115.13 18.3884C114.157 18.3409 113.188 18.541 112.315 18.9697C112.008 19.1103 111.747 19.3347 111.563 19.6167C111.379 19.8987 111.281 20.2267 111.278 20.5623C111.262 20.8488 111.329 21.134 111.471 21.3839C111.614 21.6338 111.826 21.8378 112.082 21.9717C112.863 22.3279 113.708 22.5255 114.567 22.553L117.783 22.7919C121.279 23.0944 123.026 24.6313 123.026 27.4023C123.021 28.1009 122.843 28.7876 122.508 29.4024C122.173 30.0172 121.691 30.5416 121.104 30.9299C119.585 31.947 117.773 32.4473 115.942 32.3552C114.003 32.4307 112.086 31.9257 110.442 30.906C109.106 30.0941 108.141 28.8011 107.748 27.2988H111.013C111.688 28.8383 113.46 29.6054 116.328 29.6001C117.246 29.6344 118.159 29.4401 118.981 29.0347C119.297 28.9018 119.566 28.6799 119.754 28.3967C119.943 28.1135 120.043 27.7815 120.043 27.4421C120.058 27.1526 119.991 26.8646 119.849 26.6111C119.707 26.3577 119.495 26.1489 119.239 26.0088C118.451 25.6395 117.594 25.4362 116.722 25.4116L113.393 25.1329C109.992 24.8144 108.287 23.3094 108.287 20.6339C108.289 19.9315 108.461 19.2398 108.79 18.6174C109.119 17.9951 109.595 17.4604 110.176 17.0586C111.628 16.0364 113.383 15.5261 115.162 15.6094C117.066 15.5318 118.95 16.0259 120.566 17.0268C121.855 17.8427 122.799 19.0973 123.219 20.5543Z" fill="white"/>
<path d="M10.1615 12.968L17.6169 9.0515L16.3636 6.68262L9.53673 9.39772C9.36095 9.46771 9.16612 9.46771 8.99026 9.39772L2.1616 6.68262L0.908203 9.0515L8.3636 12.968L0.908203 16.8827L2.1616 19.2516L8.98841 16.5365C9.16419 16.4664 9.35902 16.4664 9.5348 16.5365L16.3616 19.2516L17.615 16.8827L10.1596 12.9661L10.1615 12.968Z" fill="url(#paint0_linear_948_63358)"/>
<defs>
<linearGradient id="paint0_linear_948_63358" x1="16.338" y1="8.48859" x2="7.74803" y2="21.4406" gradientUnits="userSpaceOnUse">
<stop stop-color="#23FF7B"/>
<stop stop-color="#23FF7B"/>
<stop offset="0.272439" stop-color="#23FF7B"/>
<stop offset="0.479167" stop-color="#34B1CD"/>
<stop offset="0.648821" stop-color="#A855FF"/>
<stop offset="1" stop-color="#DA45FF"/>
</linearGradient>
</defs>
</svg>
