<svg width="24" height="25" viewBox="0 0 24 25" fill="none" xmlns="http://www.w3.org/2000/svg">
<path d="M12 1.72852C6.20156 1.72852 1.5 6.43008 1.5 12.2285C1.5 18.027 6.20156 22.7285 12 22.7285C17.7984 22.7285 22.5 18.027 22.5 12.2285C22.5 6.43008 17.7984 1.72852 12 1.72852ZM12 20.9473C7.18594 20.9473 3.28125 17.0426 3.28125 12.2285C3.28125 7.41445 7.18594 3.50977 12 3.50977C16.8141 3.50977 20.7188 7.41445 20.7188 12.2285C20.7188 17.0426 16.8141 20.9473 12 20.9473Z" fill="#667085"/>
<path d="M14.6153 7.65044C13.9121 7.03403 12.984 6.69653 11.9996 6.69653C11.0153 6.69653 10.0871 7.03638 9.38401 7.65044C8.65276 8.29028 8.24963 9.15044 8.24963 10.0715V10.2497C8.24963 10.3528 8.33401 10.4372 8.43713 10.4372H9.56213C9.66526 10.4372 9.74963 10.3528 9.74963 10.2497V10.0715C9.74963 9.03794 10.7598 8.19653 11.9996 8.19653C13.2395 8.19653 14.2496 9.03794 14.2496 10.0715C14.2496 10.8004 13.734 11.4684 12.9348 11.7754C12.4379 11.9653 12.016 12.2981 11.7137 12.734C11.4067 13.1793 11.2473 13.7137 11.2473 14.2551V14.759C11.2473 14.8622 11.3317 14.9465 11.4348 14.9465H12.5598C12.6629 14.9465 12.7473 14.8622 12.7473 14.759V14.227C12.7485 13.9995 12.8183 13.7776 12.9474 13.5903C13.0766 13.403 13.2593 13.259 13.4715 13.177C14.8543 12.645 15.7473 11.4262 15.7473 10.0715C15.7496 9.15044 15.3465 8.29028 14.6153 7.65044ZM11.0621 17.384C11.0621 17.6327 11.1609 17.8711 11.3367 18.0469C11.5125 18.2228 11.751 18.3215 11.9996 18.3215C12.2483 18.3215 12.4867 18.2228 12.6625 18.0469C12.8384 17.8711 12.9371 17.6327 12.9371 17.384C12.9371 17.1354 12.8384 16.8969 12.6625 16.7211C12.4867 16.5453 12.2483 16.4465 11.9996 16.4465C11.751 16.4465 11.5125 16.5453 11.3367 16.7211C11.1609 16.8969 11.0621 17.1354 11.0621 17.384Z" fill="#667085"/>
</svg>
