<svg viewBox="0 0 17 16" fill="none" xmlns="http://www.w3.org/2000/svg">
<path fill-rule="evenodd" clip-rule="evenodd" d="M15.2821 7.99965C15.2821 7.86705 15.2295 7.73987 15.1357 7.6461C15.0419 7.55233 14.9148 7.49965 14.7821 7.49965H2.98914L6.13614 4.35366C6.18263 4.30717 6.21951 4.25198 6.24467 4.19124C6.26983 4.1305 6.28278 4.0654 6.28278 3.99966C6.28278 3.93391 6.26983 3.86881 6.24467 3.80807C6.21951 3.74733 6.18263 3.69214 6.13614 3.64565C6.08966 3.59917 6.03447 3.56229 5.97373 3.53713C5.91299 3.51197 5.84789 3.49902 5.78214 3.49902C5.7164 3.49902 5.6513 3.51197 5.59056 3.53713C5.52982 3.56229 5.47463 3.59917 5.42814 3.64565L1.42814 7.64565C1.38158 7.6921 1.34464 7.74728 1.31943 7.80802C1.29422 7.86877 1.28125 7.93389 1.28125 7.99965C1.28125 8.06542 1.29422 8.13054 1.31943 8.19129C1.34464 8.25203 1.38158 8.30721 1.42814 8.35365L5.42814 12.3537C5.47463 12.4001 5.52982 12.437 5.59056 12.4622C5.6513 12.4873 5.7164 12.5003 5.78214 12.5003C5.84789 12.5003 5.91299 12.4873 5.97373 12.4622C6.03447 12.437 6.08966 12.4001 6.13614 12.3537C6.18263 12.3072 6.21951 12.252 6.24467 12.1912C6.26983 12.1305 6.28278 12.0654 6.28278 11.9997C6.28278 11.9339 6.26983 11.8688 6.24467 11.8081C6.21951 11.7473 6.18263 11.6921 6.13614 11.6457L2.98914 8.49965H14.7821C14.9148 8.49965 15.0419 8.44698 15.1357 8.35321C15.2295 8.25944 15.2821 8.13226 15.2821 7.99965Z" fill="#2C4761"/>
</svg>
