<svg viewBox="0 0 17 17" fill="none" xmlns="http://www.w3.org/2000/svg">
<path fill-rule="evenodd" clip-rule="evenodd" d="M8.05923 15.8555C8.19183 15.8555 8.31901 15.8028 8.41278 15.709C8.50655 15.6153 8.55923 15.4881 8.55923 15.3555V3.56247L11.7052 6.70947C11.7991 6.80336 11.9264 6.8561 12.0592 6.8561C12.192 6.8561 12.3193 6.80336 12.4132 6.70947C12.5071 6.61558 12.5599 6.48824 12.5599 6.35547C12.5599 6.22269 12.5071 6.09536 12.4132 6.00147L8.41323 2.00147C8.36678 1.95491 8.3116 1.91796 8.25086 1.89276C8.19011 1.86755 8.12499 1.85458 8.05923 1.85458C7.99346 1.85458 7.92834 1.86755 7.86759 1.89276C7.80685 1.91796 7.75167 1.95491 7.70522 2.00147L3.70523 6.00147C3.61134 6.09536 3.55859 6.22269 3.55859 6.35547C3.55859 6.48824 3.61134 6.61558 3.70523 6.70947C3.79911 6.80336 3.92645 6.8561 4.05923 6.8561C4.192 6.8561 4.31934 6.80336 4.41323 6.70947L7.55923 3.56247V15.3555C7.55923 15.4881 7.6119 15.6153 7.70567 15.709C7.79944 15.8028 7.92662 15.8555 8.05923 15.8555Z" fill="#3BF1A5"/>
</svg>
