<svg viewBox="0 0 17 17" fill="none" xmlns="http://www.w3.org/2000/svg">
<path class="fillColor" fill-rule="evenodd" clip-rule="evenodd" d="M1.36434 8.75002C1.36434 8.61741 1.41702 8.49024 1.51079 8.39647C1.60456 8.3027 1.73173 8.25002 1.86434 8.25002H13.6573L10.5103 5.10402C10.4639 5.05753 10.427 5.00234 10.4018 4.9416C10.3767 4.88087 10.3637 4.81577 10.3637 4.75002C10.3637 4.68428 10.3767 4.61918 10.4018 4.55844C10.427 4.4977 10.4639 4.44251 10.5103 4.39602C10.5568 4.34953 10.612 4.31266 10.6728 4.2875C10.7335 4.26234 10.7986 4.24939 10.8643 4.24939C10.9301 4.24939 10.9952 4.26234 11.0559 4.2875C11.1167 4.31266 11.1719 4.34953 11.2183 4.39602L15.2183 8.39602C15.2649 8.44247 15.3018 8.49764 15.3271 8.55839C15.3523 8.61913 15.3652 8.68425 15.3652 8.75002C15.3652 8.81579 15.3523 8.88091 15.3271 8.94165C15.3018 9.0024 15.2649 9.05758 15.2183 9.10402L11.2183 13.104C11.1719 13.1505 11.1167 13.1874 11.0559 13.2125C10.9952 13.2377 10.9301 13.2507 10.8643 13.2507C10.7986 13.2507 10.7335 13.2377 10.6728 13.2125C10.612 13.1874 10.5568 13.1505 10.5103 13.104C10.4639 13.0575 10.427 13.0023 10.4018 12.9416C10.3767 12.8809 10.3637 12.8158 10.3637 12.75C10.3637 12.6843 10.3767 12.6192 10.4018 12.5584C10.427 12.4977 10.4639 12.4425 10.5103 12.396L13.6573 9.25002H1.86434C1.73173 9.25002 1.60456 9.19734 1.51079 9.10357C1.41702 9.00981 1.36434 8.88263 1.36434 8.75002Z" fill="#BDBDBD"/>
</svg>
