<svg width="16" height="17" viewBox="0 0 16 17" fill="none" xmlns="http://www.w3.org/2000/svg">
<path fill-rule="evenodd" clip-rule="evenodd" d="M15.2142 11.8476H12.4076C13.1205 10.9201 13.549 9.7611 13.549 8.49929C13.549 7.23605 13.1195 6.07593 12.4051 5.14783H15.2127C15.6884 6.16565 15.9556 7.301 15.9556 8.49929C15.9556 9.69643 15.6889 10.8306 15.2142 11.8476ZM8.07442 11.8476C6.23003 11.8476 4.73476 10.3479 4.73476 8.49785C4.73476 6.6477 6.23003 5.14783 8.07442 5.14783C9.91909 5.14783 11.4141 6.6477 11.4141 8.49785C11.4141 10.3479 9.91909 11.8476 8.07442 11.8476ZM2.59685 8.49929C2.59685 11.5336 5.04845 13.9933 8.07297 13.9933C8.8847 13.9933 9.65236 13.8112 10.3453 13.4934V16.0703C9.62585 16.287 8.86411 16.4048 8.07442 16.4048C3.72198 16.4048 0.193359 12.8656 0.193359 8.49929C0.193359 4.13317 3.72198 0.59375 8.07442 0.59375C8.86411 0.59375 9.62585 0.711707 10.3453 0.928465V3.50508C9.65236 3.18721 8.8847 3.00531 8.07297 3.00531C5.04845 3.00531 2.59685 5.46511 2.59685 8.49929Z" fill="white"/>
</svg>
