<svg width="25" height="24" viewBox="0 0 25 24" fill="none" xmlns="http://www.w3.org/2000/svg">
<path d="M9.27631 15.5799C9.08631 15.5799 8.89631 15.5099 8.74631 15.3599C8.45631 15.0699 8.45631 14.5899 8.74631 14.2999L14.4063 8.63986C14.6963 8.34986 15.1763 8.34986 15.4663 8.63986C15.7563 8.92986 15.7563 9.40986 15.4663 9.69986L9.80631 15.3599C9.66631 15.5099 9.46631 15.5799 9.27631 15.5799Z" fill="#667085"/>
<path d="M14.9363 15.5799C14.7463 15.5799 14.5563 15.5099 14.4063 15.3599L8.74631 9.69986C8.45631 9.40986 8.45631 8.92986 8.74631 8.63986C9.03631 8.34986 9.51631 8.34986 9.80631 8.63986L15.4663 14.2999C15.7563 14.5899 15.7563 15.0699 15.4663 15.3599C15.3163 15.5099 15.1263 15.5799 14.9363 15.5799Z" fill="#667085"/>
<path d="M15.1064 22.75H9.10645C3.67645 22.75 1.35645 20.43 1.35645 15V9C1.35645 3.57 3.67645 1.25 9.10645 1.25H15.1064C20.5364 1.25 22.8564 3.57 22.8564 9V15C22.8564 20.43 20.5364 22.75 15.1064 22.75ZM9.10645 2.75C4.49645 2.75 2.85645 4.39 2.85645 9V15C2.85645 19.61 4.49645 21.25 9.10645 21.25H15.1064C19.7164 21.25 21.3564 19.61 21.3564 15V9C21.3564 4.39 19.7164 2.75 15.1064 2.75H9.10645Z" fill="#667085"/>
</svg>
