<svg viewBox="0 0 19 19" fill="none" xmlns="http://www.w3.org/2000/svg">
<path fill-rule="evenodd" clip-rule="evenodd" d="M17.1302 12.8486H14.3236C15.0365 11.921 15.465 10.7621 15.465 9.50027C15.465 8.23702 15.0355 7.0769 14.3211 6.1488H17.1287C17.6045 7.16663 17.8716 8.30198 17.8716 9.50027C17.8716 10.6974 17.6049 11.8316 17.1302 12.8486ZM9.99043 12.8486C8.14605 12.8486 6.65078 11.3488 6.65078 9.49883C6.65078 7.64868 8.14605 6.1488 9.99043 6.1488C11.8351 6.1488 13.3301 7.64868 13.3301 9.49883C13.3301 11.3488 11.8351 12.8486 9.99043 12.8486ZM4.51286 9.50027C4.51286 12.5346 6.96446 14.9943 9.98899 14.9943C10.8007 14.9943 11.5684 14.8122 12.2613 14.4943V17.0712C11.5419 17.288 10.7801 17.4058 9.99043 17.4058C5.63799 17.4058 2.10938 13.8665 2.10938 9.50027C2.10938 5.13414 5.63799 1.59473 9.99043 1.59473C10.7801 1.59473 11.5419 1.71268 12.2613 1.92944V4.50605C11.5684 4.18819 10.8007 4.00628 9.98899 4.00628C6.96446 4.00628 4.51286 6.46609 4.51286 9.50027Z" />
</svg>
