<svg width="18" height="19" viewBox="0 0 18 19" fill="none" xmlns="http://www.w3.org/2000/svg">
<path d="M14.75 4H5.25C5.05109 4 4.86032 4.07902 4.71967 4.21967C4.57902 4.36032 4.5 4.55109 4.5 4.75V16.75C4.5 16.9489 4.57902 17.1397 4.71967 17.2803C4.86032 17.421 5.05109 17.5 5.25 17.5H14.75C14.9489 17.5 15.1397 17.421 15.2803 17.2803C15.421 17.1397 15.5 16.9489 15.5 16.75V4.75C15.5 4.55109 15.421 4.36032 15.2803 4.21967C15.1397 4.07902 14.9489 4 14.75 4ZM14.5 16.5H5.5V5H14.5V16.5Z" fill="black"/>
<path d="M13 2.25C13 2.05109 12.921 1.86032 12.7803 1.71967C12.6397 1.57902 12.4489 1.5 12.25 1.5H2.75C2.55109 1.5 2.36032 1.57902 2.21967 1.71967C2.07902 1.86032 2 2.05109 2 2.25V14.25C2 14.4489 2.07902 14.6397 2.21967 14.7803C2.36032 14.921 2.55109 15 2.75 15H3V2.5H13V2.25Z" fill="black"/>
</svg>
