<svg viewBox="0 0 25 25" fill="none" xmlns="http://www.w3.org/2000/svg">
<circle cx="12" cy="12" r="12" fill="#30f874"/>
<g clip-path="url(#clip0_557_23384)">
<path d="M18.059 19L16.6618 17.7684L15.8743 17.0363L15.0416 16.2632L15.3837 17.4667H8.01612C7.66178 17.4654 7.32243 17.3235 7.07264 17.0722C6.82285 16.8209 6.68306 16.4807 6.68396 16.1263V7.339C6.68342 6.98489 6.82338 6.64503 7.07313 6.394C7.32288 6.14297 7.66202 6.00127 8.01612 6H16.7268C17.0809 6.00127 17.4201 6.14297 17.6698 6.394C17.9196 6.64503 18.0595 6.98489 18.059 7.339V19ZM14.9629 13.1897C14.6744 13.5766 14.2591 13.8498 13.7895 13.9615C13.9824 14.2078 14.2151 14.4863 14.2171 14.489C14.6038 14.4972 14.9867 14.4116 15.3331 14.2395C15.6795 14.0675 15.979 13.8141 16.2061 13.501C16.1825 12.1837 15.8626 10.8886 15.2701 9.71184C14.7485 9.30252 14.1136 9.06364 13.4515 9.02763H13.444L13.353 9.13163C13.9443 9.29047 14.4958 9.57158 14.9718 9.95679C14.3662 9.62386 13.7015 9.41192 13.015 9.33279C12.5786 9.28432 12.138 9.28869 11.7026 9.34579C11.6719 9.3464 11.6412 9.3496 11.611 9.35537H11.5918C11.0816 9.41411 10.5838 9.55264 10.1166 9.76589C9.88265 9.87332 9.73896 9.95132 9.73281 9.95405C9.72665 9.95679 9.73281 9.95405 9.73281 9.94926C10.2378 9.55242 10.8207 9.26505 11.4426 9.107L11.3742 9.029H11.3701C10.7081 9.0651 10.0732 9.30397 9.55149 9.71321C8.95685 10.8892 8.63681 12.1848 8.61549 13.5024C8.83965 13.8173 9.13794 14.0722 9.48401 14.2446C9.83008 14.4169 10.2133 14.5013 10.5997 14.4904C10.5997 14.4904 10.8446 14.1921 11.0355 13.9505C10.5778 13.8355 10.1745 13.5645 9.89496 13.1842C9.89975 13.1876 9.96749 13.2335 10.077 13.2937C10.0838 13.3026 10.0934 13.3094 10.1036 13.3142C10.1123 13.3202 10.1215 13.3255 10.131 13.3299C10.2931 13.4215 10.4619 13.5007 10.636 13.5667C10.9459 13.6898 11.2668 13.7836 11.5939 13.8472C11.8805 13.9013 12.1713 13.9293 12.4628 13.9293C12.7365 13.9293 13.0088 13.904 13.2777 13.8541C13.6014 13.7972 13.9175 13.7036 14.2199 13.5749C14.4811 13.4744 14.7303 13.3452 14.9629 13.1897V13.1897ZM13.5685 12.8975C13.4231 12.9102 13.2772 12.8787 13.15 12.807C13.0228 12.7354 12.9202 12.627 12.8556 12.496C12.7911 12.3651 12.7676 12.2177 12.7883 12.0732C12.8089 11.9286 12.8728 11.7937 12.9714 11.6861C13.07 11.5785 13.1989 11.5032 13.3411 11.47C13.4833 11.4369 13.6321 11.4475 13.7682 11.5004C13.9043 11.5533 14.0212 11.6461 14.1036 11.7666C14.186 11.8871 14.2301 12.0297 14.2301 12.1757C14.2452 12.5575 13.9496 12.8804 13.5678 12.8975H13.5685ZM11.1956 12.8975C11.0151 12.8818 10.8469 12.7989 10.7244 12.6653C10.6019 12.5317 10.534 12.357 10.534 12.1757C10.534 11.9944 10.6019 11.8197 10.7244 11.6861C10.8469 11.5524 11.0151 11.4696 11.1956 11.4538C11.281 11.454 11.3655 11.4714 11.444 11.5049C11.5225 11.5384 11.5935 11.5873 11.6527 11.6488C11.7889 11.7898 11.8628 11.9793 11.858 12.175C11.8656 12.3587 11.8001 12.5378 11.6758 12.6733C11.5515 12.8087 11.3786 12.8894 11.195 12.8975H11.1956Z" fill="#02002B"/>
</g>
<defs>
<clipPath id="clip0_557_23384">
<rect width="13" height="13" fill="white" transform="translate(6 6)"/>
</clipPath>
</defs>
</svg>
