<svg width="25" height="25" viewBox="0 0 25 25" fill="none" xmlns="http://www.w3.org/2000/svg">
<path d="M13.1166 3.14858L19.0166 5.76858C20.7166 6.51858 20.7166 7.75858 19.0166 8.50858L13.1166 11.1286C12.4466 11.4286 11.3466 11.4286 10.6766 11.1286L4.77659 8.50858C3.07659 7.75858 3.07659 6.51858 4.77659 5.76858L10.6766 3.14858C11.3466 2.84858 12.4466 2.84858 13.1166 3.14858Z" stroke="#667085" stroke-width="1.5" stroke-linecap="round" stroke-linejoin="round"/>
<path d="M3.10657 11.2285C3.10657 12.0685 3.73657 13.0385 4.50657 13.3785L11.2966 16.3985C11.8166 16.6285 12.4066 16.6285 12.9166 16.3985L19.7066 13.3785C20.4766 13.0385 21.1066 12.0685 21.1066 11.2285" stroke="#667085" stroke-width="1.5" stroke-linecap="round" stroke-linejoin="round"/>
<path d="M3.10657 16.2285C3.10657 17.1585 3.65657 17.9985 4.50657 18.3785L11.2966 21.3985C11.8166 21.6285 12.4066 21.6285 12.9166 21.3985L19.7066 18.3785C20.5566 17.9985 21.1066 17.1585 21.1066 16.2285" stroke="#667085" stroke-width="1.5" stroke-linecap="round" stroke-linejoin="round"/>
</svg>
