<svg viewBox="0 0 25 24" fill="none" xmlns="http://www.w3.org/2000/svg">
<path d="M11.2734 4.00023H4.27344C3.743 4.00023 3.2343 4.21094 2.85922 4.58601C2.48415 4.96109 2.27344 5.46979 2.27344 6.00023V20.0002C2.27344 20.5307 2.48415 21.0394 2.85922 21.4144C3.2343 21.7895 3.743 22.0002 4.27344 22.0002H18.2734C18.8039 22.0002 19.3126 21.7895 19.6877 21.4144C20.0627 21.0394 20.2734 20.5307 20.2734 20.0002V13.0002M18.7734 2.50023C19.1713 2.1024 19.7108 1.87891 20.2734 1.87891C20.836 1.87891 21.3756 2.1024 21.7734 2.50023C22.1713 2.89805 22.3948 3.43762 22.3948 4.00023C22.3948 4.56284 22.1713 5.1024 21.7734 5.50023L12.2734 15.0002L8.27344 16.0002L9.27344 12.0002L18.7734 2.50023Z" stroke-width="2" stroke-linecap="round" stroke-linejoin="round"/>
</svg>
