<svg viewBox="0 0 21 21" fill="none" xmlns="http://www.w3.org/2000/svg">
<circle cx="10.5" cy="10.5" r="10.5" fill="url(#paint0_linear)"/>
<path d="M17 7.85408V13.8846C17 14.4457 16.786 14.9837 16.4051 15.3804C16.0241 15.7771 15.5075 16 14.9688 16H6.03125C5.49253 16 4.97587 15.7771 4.59494 15.3804C4.21401 14.9837 4 14.4457 4 13.8846V7.85408L10.2936 11.7108C10.3561 11.7492 10.4274 11.7695 10.5 11.7695C10.5726 11.7695 10.6439 11.7492 10.7064 11.7108L17 7.85408ZM14.9688 5C15.4686 4.99992 15.9508 5.19174 16.3234 5.53878C16.6959 5.88582 16.9324 6.3637 16.9878 6.881L10.5 10.8554L4.01219 6.881C4.06757 6.3637 4.30414 5.88582 4.67665 5.53878C5.04915 5.19174 5.53144 4.99992 6.03125 5H14.9688Z" fill="#02002B"/>
<defs>
<linearGradient id="paint0_linear" x1="12.5775" y1="32.9796" x2="-3.35437" y2="30.2014" gradientUnits="userSpaceOnUse">
<stop stop-color="#30F874"/>
<stop offset="0.760417" stop-color="#68FFAE"/>
</linearGradient>
</defs>
</svg>
