<svg width="30" height="31" viewBox="0 0 30 31" fill="none" xmlns="http://www.w3.org/2000/svg">
<path d="M28.0312 5C29.1094 5 30 5.89062 30 6.96875C30 7.4375 29.8125 7.85938 29.5781 8.1875L23.25 16.2969V23C23.25 24.2656 21.7969 24.9688 20.8125 24.1719L16.4531 20.75C15.9844 20.4219 15.75 19.8594 15.75 19.2969V16.2969L9.375 8.1875C9.14062 7.85938 9 7.4375 9 6.96875C9 5.89062 9.84375 5 10.9219 5H28.0312ZM18 15.875V19.1094L21 21.4531V15.875C21 15.6406 21.0469 15.4062 21.2344 15.2188L27.4219 7.25H11.5312L17.7188 15.2188C17.9062 15.4062 18 15.6406 18 15.875ZM8.20312 9.125L9.09375 10.25H2.53125L8.71875 18.2188C8.90625 18.4062 9 18.6406 9 18.875V20.6094L12 22.9531V18.875C12 18.6406 12.0469 18.4062 12.2344 18.2188L13.7812 16.2031L14.25 16.8125V24.5C14.25 25.7656 12.7969 26.4688 11.8125 25.6719L7.45312 22.25C6.98438 21.9219 6.75 21.3594 6.75 20.7969V19.2969L0.375 11.1875C0.140625 10.8594 0 10.4375 0 9.96875C0 8.89062 0.84375 8 1.92188 8H7.64062C7.78125 8.42188 7.96875 8.79688 8.20312 9.125Z" fill="white"/>
</svg>
