<svg width="24" height="25" viewBox="0 0 24 25" fill="none" xmlns="http://www.w3.org/2000/svg">
<path d="M21.3749 10.2811C21.3749 10.2811 20.2499 11.3311 18.3374 12.5686C17.8124 9.53105 16.3499 5.78105 13.4999 1.20605C13.4999 1.20605 12.5624 6.11855 9.44992 10.7311C8.09992 8.63105 7.49992 6.98105 7.49992 6.98105C-2.25008 16.7686 5.84992 23.7061 10.9499 23.7061C17.4749 23.7061 23.2124 20.5561 21.3749 10.2811Z" fill="#FFB703"/>
<path d="M17.5127 18.9809C18.0752 17.7434 18.4877 16.1309 18.5627 14.1059C18.5627 14.1059 17.7752 14.7809 16.4252 15.6434C16.0502 13.6184 15.0377 11.1434 13.0502 8.06836C13.0502 8.06836 12.4127 11.3309 10.2377 14.4434C9.3002 13.0559 8.8877 11.9309 8.8877 11.9309C7.2752 14.4809 6.6377 16.5059 6.6002 18.1184C5.7002 17.7809 5.1377 17.5184 5.1377 17.5184C6.6752 22.0934 9.8627 23.1059 11.2877 23.1059C13.8377 23.1059 16.4252 22.3559 18.9752 18.7184C18.9752 18.6809 18.4127 18.8309 17.5127 18.9809Z" fill="#FFD74A"/>
<path d="M8.21254 16.9186C8.21254 16.9186 9.26254 18.3436 10.05 18.0061C10.05 18.0061 11.55 15.6436 13.725 14.3311C13.725 14.3311 13.275 17.9311 13.8 18.5686C14.475 19.4311 16.3125 17.6311 16.3125 17.6311C16.3125 19.7686 13.9875 22.4311 11.8875 22.4311C9.86254 22.4311 6.93754 20.1061 8.21254 16.9186Z" fill="#FFEDBF"/>
<path d="M18.6747 7.24356C19.4622 6.11855 19.9872 4.91855 19.9872 4.91855C21.2997 7.09355 20.5122 8.40605 19.9497 8.81855C19.1622 9.41855 17.7747 8.55606 18.6747 7.24356ZM4.34973 6.86856C3.56223 5.55605 3.48723 3.90605 3.48723 3.90605C1.61223 6.71855 2.32473 8.29355 2.96223 8.74356C3.78723 9.38105 5.21223 8.40605 4.34973 6.86856ZM8.69973 3.94355C8.81223 3.04355 8.43723 2.14355 8.43723 2.14355C10.1997 3.30605 10.1997 4.28105 9.97473 4.69355C9.63723 5.18105 8.58723 4.95605 8.69973 3.94355Z" fill="#FF8933"/>
</svg>
