<svg width="20" height="21" viewBox="0 0 20 21" fill="none" xmlns="http://www.w3.org/2000/svg">
<path d="M5.75 3.5C6.4375 3.5 7 4.0625 7 4.75V6.25C7 6.96875 6.4375 7.5 5.75 7.5H4.25C3.53125 7.5 3 6.96875 3 6.25V4.75C3 4.0625 3.53125 3.5 4.25 3.5H5.75ZM5.75 4.5H4.25C4.09375 4.5 4 4.625 4 4.75V6.25C4 6.40625 4.09375 6.5 4.25 6.5H5.75C5.875 6.5 6 6.40625 6 6.25V4.75C6 4.625 5.875 4.5 5.75 4.5ZM5.75 8.5C6.4375 8.5 7 9.0625 7 9.75V11.25C7 11.9688 6.4375 12.5 5.75 12.5H4.25C3.53125 12.5 3 11.9688 3 11.25V9.75C3 9.0625 3.53125 8.5 4.25 8.5H5.75ZM5.75 9.5H4.25C4.09375 9.5 4 9.625 4 9.75V11.25C4 11.4062 4.09375 11.5 4.25 11.5H5.75C5.875 11.5 6 11.4062 6 11.25V9.75C6 9.625 5.875 9.5 5.75 9.5ZM3 14.75C3 14.0625 3.53125 13.5 4.25 13.5H5.75C6.4375 13.5 7 14.0625 7 14.75V16.25C7 16.9688 6.4375 17.5 5.75 17.5H4.25C3.53125 17.5 3 16.9688 3 16.25V14.75ZM4 14.75V16.25C4 16.4062 4.09375 16.5 4.25 16.5H5.75C5.875 16.5 6 16.4062 6 16.25V14.75C6 14.625 5.875 14.5 5.75 14.5H4.25C4.09375 14.5 4 14.625 4 14.75ZM10.75 3.5C11.4375 3.5 12 4.0625 12 4.75V6.25C12 6.96875 11.4375 7.5 10.75 7.5H9.25C8.53125 7.5 8 6.96875 8 6.25V4.75C8 4.0625 8.53125 3.5 9.25 3.5H10.75ZM10.75 4.5H9.25C9.09375 4.5 9 4.625 9 4.75V6.25C9 6.40625 9.09375 6.5 9.25 6.5H10.75C10.875 6.5 11 6.40625 11 6.25V4.75C11 4.625 10.875 4.5 10.75 4.5ZM8 9.75C8 9.0625 8.53125 8.5 9.25 8.5H10.75C11.4375 8.5 12 9.0625 12 9.75V11.25C12 11.9688 11.4375 12.5 10.75 12.5H9.25C8.53125 12.5 8 11.9688 8 11.25V9.75ZM9 9.75V11.25C9 11.4062 9.09375 11.5 9.25 11.5H10.75C10.875 11.5 11 11.4062 11 11.25V9.75C11 9.625 10.875 9.5 10.75 9.5H9.25C9.09375 9.5 9 9.625 9 9.75ZM10.75 13.5C11.4375 13.5 12 14.0625 12 14.75V16.25C12 16.9688 11.4375 17.5 10.75 17.5H9.25C8.53125 17.5 8 16.9688 8 16.25V14.75C8 14.0625 8.53125 13.5 9.25 13.5H10.75ZM10.75 14.5H9.25C9.09375 14.5 9 14.625 9 14.75V16.25C9 16.4062 9.09375 16.5 9.25 16.5H10.75C10.875 16.5 11 16.4062 11 16.25V14.75C11 14.625 10.875 14.5 10.75 14.5ZM13 4.75C13 4.0625 13.5312 3.5 14.25 3.5H15.75C16.4375 3.5 17 4.0625 17 4.75V6.25C17 6.96875 16.4375 7.5 15.75 7.5H14.25C13.5312 7.5 13 6.96875 13 6.25V4.75ZM14 4.75V6.25C14 6.40625 14.0938 6.5 14.25 6.5H15.75C15.875 6.5 16 6.40625 16 6.25V4.75C16 4.625 15.875 4.5 15.75 4.5H14.25C14.0938 4.5 14 4.625 14 4.75ZM15.75 8.5C16.4375 8.5 17 9.0625 17 9.75V11.25C17 11.9688 16.4375 12.5 15.75 12.5H14.25C13.5312 12.5 13 11.9688 13 11.25V9.75C13 9.0625 13.5312 8.5 14.25 8.5H15.75ZM15.75 9.5H14.25C14.0938 9.5 14 9.625 14 9.75V11.25C14 11.4062 14.0938 11.5 14.25 11.5H15.75C15.875 11.5 16 11.4062 16 11.25V9.75C16 9.625 15.875 9.5 15.75 9.5ZM13 14.75C13 14.0625 13.5312 13.5 14.25 13.5H15.75C16.4375 13.5 17 14.0625 17 14.75V16.25C17 16.9688 16.4375 17.5 15.75 17.5H14.25C13.5312 17.5 13 16.9688 13 16.25V14.75ZM14 14.75V16.25C14 16.4062 14.0938 16.5 14.25 16.5H15.75C15.875 16.5 16 16.4062 16 16.25V14.75C16 14.625 15.875 14.5 15.75 14.5H14.25C14.0938 14.5 14 14.625 14 14.75Z" fill="#A3A3A3"/>
</svg>
