<svg viewBox="0 0 30 30" fill="none" xmlns="http://www.w3.org/2000/svg">
<circle cx="14.654" cy="14.654" r="11.7672" fill="#FFB703"/>
<path d="M14.6543 1.83203C7.57267 1.83203 1.83203 7.57267 1.83203 14.6543C1.83203 21.7359 7.57267 27.4766 14.6543 27.4766C21.7359 27.4766 27.4766 21.7359 27.4766 14.6543C27.4766 7.57267 21.7359 1.83203 14.6543 1.83203ZM11.5155 19.9689H8.91901V11.613H11.5155V19.9689ZM10.2012 10.5872C9.38115 10.5872 8.85089 10.0062 8.85089 9.28765C8.85089 8.55438 9.39717 7.99073 10.2346 7.99073C11.0721 7.99073 11.585 8.55438 11.601 9.28765C11.601 10.0062 11.0721 10.5872 10.2012 10.5872ZM20.9987 19.9689H18.4021V15.3382C18.4021 14.2603 18.0255 13.5283 17.0865 13.5283C16.3693 13.5283 15.9432 14.0239 15.7549 14.5007C15.6854 14.6703 15.6681 14.9108 15.6681 15.1498V19.9675H13.0702V14.2777C13.0702 13.2345 13.0368 12.3623 13.0021 11.6117H15.258L15.3769 12.7724H15.429C15.7709 12.2274 16.6084 11.4234 18.0095 11.4234C19.7178 11.4234 20.9987 12.568 20.9987 15.0283V19.9689Z" fill="black"/>
</svg>
