<svg viewBox="0 0 21 21" fill="none" xmlns="http://www.w3.org/2000/svg">
<circle cx="10.5001" cy="10.4998" r="9.63605" fill="#02002B"/>
<path d="M10.5 0C4.70156 0 0 4.70156 0 10.5C0 16.2984 4.70156 21 10.5 21C16.2984 21 21 16.2984 21 10.5C21 4.70156 16.2984 0 10.5 0ZM16.5 5.94609L15.5438 6.8625C15.4594 6.92578 15.4195 7.02891 15.4359 7.12969V13.8727C15.4195 13.9758 15.4594 14.0789 15.5438 14.1398L16.4813 15.0563V15.2602H11.775V15.0656L12.743 14.1258C12.8391 14.0297 12.8391 14.0016 12.8391 13.8586V8.40234L10.1437 15.2367H9.78047L6.64453 8.40234V12.9844C6.61641 13.1766 6.68437 13.3711 6.82031 13.5094L8.08125 15.0352V15.2391H4.5V15.0352L5.76094 13.5094C5.82737 13.4408 5.87681 13.3575 5.9053 13.2664C5.93379 13.1752 5.94054 13.0786 5.925 12.9844V7.6875C5.94141 7.53984 5.88516 7.39687 5.77266 7.29609L4.65234 5.94609V5.74219H8.13281L10.8187 11.6367L13.1836 5.74688H16.5V5.94609Z" fill="url(#paint0_linear)"/>
<defs>
<linearGradient id="paint0_linear" x1="12.5775" y1="32.9796" x2="-3.35437" y2="30.2014" gradientUnits="userSpaceOnUse">
<stop stop-color="#30F874"/>
<stop offset="0.760417" stop-color="#68FFAE"/>
</linearGradient>
</defs>
</svg>
