<svg viewBox="0 0 19 19" fill="none" xmlns="http://www.w3.org/2000/svg">
<g clip-path="url(#clip0_445_45533)">
<path d="M16.4478 1.81659C16.7408 1.81659 17.0218 1.93297 17.229 2.14014C17.4361 2.3473 17.5525 2.62828 17.5525 2.92126V16.1773C17.5525 16.4703 17.4361 16.7513 17.229 16.9584C17.0218 17.1656 16.7408 17.282 16.4478 17.282H3.19177C2.89879 17.282 2.61781 17.1656 2.41065 16.9584C2.20348 16.7513 2.08709 16.4703 2.08709 16.1773V2.92126C2.08709 2.62828 2.20348 2.3473 2.41065 2.14014C2.61781 1.93297 2.89879 1.81659 3.19177 1.81659H16.4478ZM3.19177 0.711914C2.60581 0.711914 2.04386 0.944684 1.62952 1.35902C1.21519 1.77335 0.982422 2.3353 0.982422 2.92126L0.982422 16.1773C0.982422 16.7633 1.21519 17.3252 1.62952 17.7396C2.04386 18.1539 2.60581 18.3867 3.19177 18.3867H16.4478C17.0338 18.3867 17.5957 18.1539 18.0101 17.7396C18.4244 17.3252 18.6572 16.7633 18.6572 16.1773V2.92126C18.6572 2.3353 18.4244 1.77335 18.0101 1.35902C17.5957 0.944684 17.0338 0.711914 16.4478 0.711914L3.19177 0.711914Z" />
<path d="M13.6864 8.99707H10.3724H9.26772H5.9537C5.80721 8.99707 5.66673 9.05526 5.56314 9.15885C5.45956 9.26243 5.40137 9.40292 5.40137 9.54941C5.40137 9.6959 5.45956 9.83638 5.56314 9.93997C5.66673 10.0436 5.80721 10.1017 5.9537 10.1017H9.26772H10.3724H13.6864C13.8329 10.1017 13.9734 10.0436 14.077 9.93997C14.1806 9.83638 14.2387 9.6959 14.2387 9.54941C14.2387 9.40292 14.1806 9.26243 14.077 9.15885C13.9734 9.05526 13.8329 8.99707 13.6864 8.99707Z" />
</g>
<defs>
<clipPath id="clip0_445_45533">
<rect width="17.6748" height="17.6748" fill="white" transform="translate(0.982422 0.711914)"/>
</clipPath>
</defs>
</svg>
