<svg width="25" height="25" viewBox="0 0 25 25" fill="none" xmlns="http://www.w3.org/2000/svg">
<path d="M13.0536 11.0985C12.9536 11.0885 12.8336 11.0885 12.7236 11.0985C10.3436 11.0185 8.45361 9.06852 8.45361 6.66852C8.45361 4.21852 10.4336 2.22852 12.8936 2.22852C15.3436 2.22852 17.3336 4.21852 17.3336 6.66852C17.3236 9.06852 15.4336 11.0185 13.0536 11.0985Z" stroke="#667085" stroke-width="1.5" stroke-linecap="round" stroke-linejoin="round"/>
<path d="M8.05353 14.7885C5.63353 16.4085 5.63353 19.0485 8.05353 20.6585C10.8035 22.4985 15.3135 22.4985 18.0635 20.6585C20.4835 19.0385 20.4835 16.3985 18.0635 14.7885C15.3235 12.9585 10.8135 12.9585 8.05353 14.7885Z" stroke="#667085" stroke-width="1.5" stroke-linecap="round" stroke-linejoin="round"/>
</svg>
