<svg viewBox="0 0 19 19" fill="none" xmlns="http://www.w3.org/2000/svg">
<g clip-path="url(#clip0_445_45537)">
<path d="M16.1217 1.81659C16.4146 1.81659 16.6956 1.93297 16.9028 2.14014C17.1099 2.3473 17.2263 2.62828 17.2263 2.92126V16.1773C17.2263 16.4703 17.1099 16.7513 16.9028 16.9584C16.6956 17.1656 16.4146 17.282 16.1217 17.282H2.86559C2.57262 17.282 2.29164 17.1656 2.08447 16.9584C1.87731 16.7513 1.76092 16.4703 1.76092 16.1773V2.92126C1.76092 2.62828 1.87731 2.3473 2.08447 2.14014C2.29164 1.93297 2.57262 1.81659 2.86559 1.81659H16.1217ZM2.86559 0.711914C2.27964 0.711914 1.71768 0.944684 1.30335 1.35902C0.88902 1.77335 0.65625 2.3353 0.65625 2.92126L0.65625 16.1773C0.65625 16.7633 0.88902 17.3252 1.30335 17.7396C1.71768 18.1539 2.27964 18.3867 2.86559 18.3867H16.1217C16.7076 18.3867 17.2696 18.1539 17.6839 17.7396C18.0982 17.3252 18.331 16.7633 18.331 16.1773V2.92126C18.331 2.3353 18.0982 1.77335 17.6839 1.35902C17.2696 0.944684 16.7076 0.711914 16.1217 0.711914L2.86559 0.711914Z"/>
<path d="M9.49388 5.13086C9.64037 5.13086 9.78086 5.18905 9.88445 5.29263C9.98803 5.39622 10.0462 5.53671 10.0462 5.6832V8.99721H13.3602C13.5067 8.99721 13.6472 9.0554 13.7508 9.15899C13.8544 9.26257 13.9126 9.40306 13.9126 9.54955C13.9126 9.69604 13.8544 9.83653 13.7508 9.94011C13.6472 10.0437 13.5067 10.1019 13.3602 10.1019H10.0462V13.4159C10.0462 13.5624 9.98803 13.7029 9.88445 13.8065C9.78086 13.91 9.64037 13.9682 9.49388 13.9682C9.3474 13.9682 9.20691 13.91 9.10332 13.8065C8.99974 13.7029 8.94155 13.5624 8.94155 13.4159V10.1019H5.62753C5.48104 10.1019 5.34055 10.0437 5.23697 9.94011C5.13339 9.83653 5.0752 9.69604 5.0752 9.54955C5.0752 9.40306 5.13339 9.26257 5.23697 9.15899C5.34055 9.0554 5.48104 8.99721 5.62753 8.99721H8.94155V5.6832C8.94155 5.53671 8.99974 5.39622 9.10332 5.29263C9.20691 5.18905 9.3474 5.13086 9.49388 5.13086Z"/>
</g>
</svg>
