<svg width="20" height="21" viewBox="0 0 20 21" fill="none" xmlns="http://www.w3.org/2000/svg">
<path d="M11.6562 3.5H8.3125C6.46875 3.5 5 5 5 6.84375V7.5C5 7.78125 5.21875 8 5.5 8C5.75 8 6 7.78125 6 7.5V6.84375C6 5.5625 7.03125 4.5 8.3125 4.5H11.6562C12.9375 4.5 14 5.5625 14 6.84375C14 7.6875 13.5312 8.46875 12.7812 8.90625L9.75 10.5938C9.28125 10.875 9 11.375 9 11.9062V13C9 13.2812 9.21875 13.5312 9.5 13.5312C9.75 13.5312 10 13.2812 10 13V11.9062C10 11.7188 10.0938 11.5625 10.25 11.4688L13.2812 9.75C14.3438 9.1875 15 8.0625 15 6.84375C15 5 13.5 3.5 11.6562 3.5ZM9.5 15C8.9375 15 8.5 15.4688 8.5 16C8.5 16.5625 8.9375 17 9.5 17C10.0312 17 10.5 16.5625 10.5 16C10.5 15.4688 10.0312 15 9.5 15Z" fill="#A3A3A3"/>
</svg>
