<svg width="20" height="20" viewBox="0 0 20 20" fill="none" xmlns="http://www.w3.org/2000/svg">
<path d="M8.96484 16.6304C10.7398 16.63 12.4636 16.0358 13.8618 14.9424L18.2578 19.3384L19.6718 17.9244L15.2758 13.5284C16.3698 12.13 16.9644 10.4058 16.9648 8.63037C16.9648 4.21937 13.3758 0.630371 8.96484 0.630371C4.55384 0.630371 0.964844 4.21937 0.964844 8.63037C0.964844 13.0414 4.55384 16.6304 8.96484 16.6304ZM8.96484 2.63037C12.2738 2.63037 14.9648 5.32137 14.9648 8.63037C14.9648 11.9394 12.2738 14.6304 8.96484 14.6304C5.65584 14.6304 2.96484 11.9394 2.96484 8.63037C2.96484 5.32137 5.65584 2.63037 8.96484 2.63037Z" fill="#2C4761"/>
</svg>
