<svg width="24" height="25" viewBox="0 0 24 25" fill="none" xmlns="http://www.w3.org/2000/svg">
<path d="M12 15.2285C13.6569 15.2285 15 13.8854 15 12.2285C15 10.5717 13.6569 9.22852 12 9.22852C10.3431 9.22852 9 10.5717 9 12.2285C9 13.8854 10.3431 15.2285 12 15.2285Z" stroke="#667085" stroke-width="1.5" stroke-miterlimit="10" stroke-linecap="round" stroke-linejoin="round"/>
<path d="M2 13.1085V11.3485C2 10.3085 2.85 9.44845 3.9 9.44845C5.71 9.44845 6.45 8.16845 5.54 6.59845C5.02 5.69845 5.33 4.52845 6.24 4.00845L7.97 3.01845C8.76 2.54845 9.78 2.82845 10.25 3.61845L10.36 3.80845C11.26 5.37845 12.74 5.37845 13.65 3.80845L13.76 3.61845C14.23 2.82845 15.25 2.54845 16.04 3.01845L17.77 4.00845C18.68 4.52845 18.99 5.69845 18.47 6.59845C17.56 8.16845 18.3 9.44845 20.11 9.44845C21.15 9.44845 22.01 10.2985 22.01 11.3485V13.1085C22.01 14.1485 21.16 15.0085 20.11 15.0085C18.3 15.0085 17.56 16.2885 18.47 17.8585C18.99 18.7685 18.68 19.9285 17.77 20.4485L16.04 21.4385C15.25 21.9085 14.23 21.6285 13.76 20.8385L13.65 20.6485C12.75 19.0785 11.27 19.0785 10.36 20.6485L10.25 20.8385C9.78 21.6285 8.76 21.9085 7.97 21.4385L6.24 20.4485C5.33 19.9285 5.02 18.7585 5.54 17.8585C6.45 16.2885 5.71 15.0085 3.9 15.0085C2.85 15.0085 2 14.1485 2 13.1085Z" stroke="#667085" stroke-width="1.5" stroke-miterlimit="10" stroke-linecap="round" stroke-linejoin="round"/>
</svg>
