<svg width="118" height="101" viewBox="0 0 118 101" fill="none" xmlns="http://www.w3.org/2000/svg">
<path d="M113.428 55.7998C113.136 56.0325 112.396 55.648 111.616 54.8165C110.7 53.84 110.074 52.6164 110.22 52.084L111.851 46.098C111.997 45.5667 112.857 45.9255 113.773 46.9022C114.69 47.879 115.315 49.1023 115.17 49.6347L113.538 55.6207C113.517 55.6998 113.479 55.7593 113.428 55.7998Z" fill="#FFB703"/>
<path d="M55.1574 10.1461C54.8852 10.3627 54.164 9.96365 53.3887 9.12815C52.4784 8.147 51.8382 6.9351 51.9595 6.4218L53.3211 0.650552C53.443 0.138028 54.2786 0.516412 55.1891 1.49783C56.0997 2.47924 56.7396 3.69088 56.6183 4.20418L55.2567 9.97543C55.2385 10.0514 55.2049 10.1082 55.1574 10.1461Z" fill="#FFB703"/>
<path d="M7.54683 42.8142C7.23043 43.066 6.47727 42.712 5.69559 41.8989C4.76903 40.9353 4.15332 39.6921 4.32027 39.1221L7.24553 29.1237C7.41177 28.5529 8.29852 28.8724 9.22498 29.836C10.1514 30.7997 10.7673 32.0428 10.6003 32.6128L7.67504 42.6113C7.64902 42.7003 7.60535 42.7676 7.54683 42.8142Z" fill="#3BF1A5"/>
<path d="M115.899 21.2789C115.482 22.0593 114.423 22.4022 113.314 22.0493C112.018 21.637 111.143 20.4313 111.36 19.3561L111.871 16.8211C112.088 15.7466 113.315 15.2088 114.611 15.621C115.907 16.0333 116.782 17.239 116.565 18.3142L116.054 20.8492C116.022 21.0041 115.97 21.1477 115.899 21.2789Z" fill="#3BF1A5"/>
<path d="M105.979 56.3125C105.979 80.75 86.1685 100.561 61.731 100.561C37.2934 100.561 17.4829 80.75 17.4829 56.3125C17.4829 31.875 37.2934 12.0645 61.731 12.0645C86.1685 12.0645 105.979 31.875 105.979 56.3125ZM28.9402 56.3125C28.9402 74.4223 43.6211 89.1032 61.731 89.1032C79.8408 89.1032 94.5217 74.4223 94.5217 56.3125C94.5217 38.2027 79.8408 23.5218 61.731 23.5218C43.6211 23.5218 28.9402 38.2027 28.9402 56.3125Z" fill="#FFB703"/>
<path d="M61.7311 20.0488C54.5591 20.0488 47.5481 22.1756 41.5848 26.1601C35.6215 30.1447 30.9737 35.8081 28.2291 42.4341C25.4845 49.0602 24.7663 56.3514 26.1655 63.3856C27.5647 70.4198 31.0184 76.8811 36.0898 81.9525C41.1611 87.0238 47.6225 90.4775 54.6566 91.8767C61.6908 93.2759 68.982 92.5577 75.6081 89.8131C82.2341 87.0685 87.8975 82.4207 91.8821 76.4574C95.8666 70.4941 97.9934 63.4831 97.9934 56.3111C97.9934 46.6938 94.1729 37.4703 87.3724 30.6698C80.5719 23.8693 71.3484 20.0488 61.7311 20.0488ZM85.4149 44.1406L55.6345 73.8984L38.0473 56.3111C37.4462 55.71 37.1085 54.8948 37.1085 54.0447C37.1085 53.1947 37.4462 52.3794 38.0473 51.7783C38.6483 51.1773 39.4636 50.8396 40.3136 50.8396C41.1637 50.8396 41.979 51.1773 42.58 51.7783L55.6798 64.8781L80.9274 39.6531C81.2251 39.3555 81.5784 39.1194 81.9673 38.9583C82.3561 38.7973 82.7729 38.7144 83.1938 38.7144C83.6147 38.7144 84.0315 38.7973 84.4204 38.9583C84.8093 39.1194 85.1626 39.3555 85.4602 39.6531C85.7578 39.9508 85.9939 40.3041 86.155 40.693C86.3161 41.0818 86.399 41.4986 86.399 41.9195C86.399 42.3404 86.3161 42.7572 86.155 43.1461C85.9939 43.535 85.7578 43.8883 85.4602 44.1859L85.4149 44.1406Z" fill="#3BF1A5"/>
</svg>
