<svg viewBox="0 0 25 25" fill="none" xmlns="http://www.w3.org/2000/svg">
<path d="M21.9404 6.30469C18.6104 5.97469 15.2604 5.80469 11.9204 5.80469C9.94043 5.80469 7.96043 5.90469 5.98043 6.10469L3.94043 6.30469" stroke-width="1.5" stroke-linecap="round" stroke-linejoin="round"/>
<path d="M9.44043 5.29422L9.66043 3.98422C9.82043 3.03422 9.94043 2.32422 11.6304 2.32422H14.2504C15.9404 2.32422 16.0704 3.07422 16.2204 3.99422L16.4404 5.29422" stroke-width="1.5" stroke-linecap="round" stroke-linejoin="round"/>
<path d="M19.7908 9.46484L19.1408 19.5348C19.0308 21.1048 18.9408 22.3248 16.1508 22.3248H9.73082C6.94082 22.3248 6.85082 21.1048 6.74082 19.5348L6.09082 9.46484" stroke-width="1.5" stroke-linecap="round" stroke-linejoin="round"/>
<path d="M11.2705 16.8242H14.6005" stroke-width="1.5" stroke-linecap="round" stroke-linejoin="round"/>
<path d="M10.4404 12.8242H15.4404" stroke-width="1.5" stroke-linecap="round" stroke-linejoin="round"/>
</svg>
