<svg viewBox="0 0 21 21" fill="none" xmlns="http://www.w3.org/2000/svg">
<circle cx="10.5001" cy="10.4998" r="9.63605" fill="#02002B"/>
<path d="M10.5 0C4.70094 0 0 4.70094 0 10.5C0 16.2991 4.70094 21 10.5 21C16.2991 21 21 16.2991 21 10.5C21 4.70094 16.2991 0 10.5 0ZM14.7711 8.60125C14.7755 8.69094 14.7766 8.78063 14.7766 8.86813C14.7766 11.6025 12.6973 14.7536 8.89328 14.7536C7.76923 14.7555 6.66856 14.4326 5.72359 13.8239C5.88437 13.8436 6.04953 13.8513 6.21688 13.8513C7.18594 13.8513 8.07734 13.522 8.785 12.9664C8.35375 12.9579 7.93589 12.8151 7.58965 12.5579C7.24342 12.3007 6.98605 11.9418 6.85344 11.5314C7.16314 11.5903 7.48218 11.578 7.78641 11.4953C7.31833 11.4007 6.8974 11.147 6.59499 10.7774C6.29258 10.4079 6.1273 9.94505 6.12719 9.4675V9.44234C6.40609 9.59656 6.72547 9.69063 7.06453 9.70156C6.62572 9.40945 6.31508 8.96073 6.19614 8.44718C6.07721 7.93362 6.15896 7.39403 6.42469 6.93875C6.94417 7.5775 7.592 8.10004 8.32625 8.47253C9.06049 8.84502 9.86478 9.05916 10.687 9.10109C10.5825 8.65737 10.6275 8.19154 10.815 7.77602C11.0025 7.3605 11.3221 7.01858 11.724 6.80341C12.1259 6.58824 12.5876 6.51188 13.0374 6.5862C13.4872 6.66052 13.8998 6.88136 14.2111 7.21437C14.6739 7.1228 15.1178 6.95303 15.5236 6.71234C15.3693 7.19155 15.0464 7.59847 14.6147 7.8575C15.0247 7.80812 15.425 7.6979 15.8025 7.53047C15.5252 7.94598 15.1759 8.3086 14.7711 8.60125V8.60125Z" fill="url(#paint0_linear)"/>
<defs>
<linearGradient id="paint0_linear" x1="12.5775" y1="32.9796" x2="-3.35437" y2="30.2014" gradientUnits="userSpaceOnUse">
<stop stop-color="#30F874"/>
<stop offset="0.760417" stop-color="#68FFAE"/>
</linearGradient>
</defs>
</svg>
