<svg viewBox="0 0 16 14" fill="none" xmlns="http://www.w3.org/2000/svg">
<path d="M15.0891 0.904943C14.4695 1.34197 13.7836 1.67622 13.0576 1.89483C12.6679 1.4468 12.1501 1.12925 11.5741 0.985122C10.9981 0.840996 10.3917 0.87725 9.83695 1.08898C9.28221 1.30071 8.80589 1.6777 8.4724 2.16897C8.1389 2.66023 7.96433 3.24207 7.97229 3.83578V4.48276C6.8353 4.51224 5.70867 4.26008 4.69273 3.74873C3.6768 3.23737 2.80309 2.4827 2.14944 1.55193C2.14944 1.55193 -0.438499 7.37478 5.38435 9.96271C4.05191 10.8672 2.46462 11.3207 0.855469 11.2567C6.67832 14.4916 13.7951 11.2567 13.7951 3.81637C13.7945 3.63615 13.7772 3.45638 13.7434 3.27937C14.4037 2.62818 14.8697 1.80601 15.0891 0.904943V0.904943Z" stroke="#FFB703" stroke-width="1.3" stroke-linecap="round" stroke-linejoin="round"/>
</svg>
