<svg width="58" height="58" viewBox="0 0 58 58" fill="none" xmlns="http://www.w3.org/2000/svg">
<path d="M26.0213 36.136C25.5465 36.136 25.0956 35.9462 24.7633 35.6139L19.0192 29.8698C18.3308 29.1814 18.3308 28.0421 19.0192 27.3538C19.7075 26.6654 20.8468 26.6654 21.5352 27.3538L26.0213 31.8399L36.2277 21.6334C36.916 20.9451 38.0553 20.9451 38.7437 21.6334C39.432 22.3218 39.432 23.4611 38.7437 24.1494L27.2793 35.6139C26.947 35.9462 26.496 36.136 26.0213 36.136Z" fill="white"/>
<path d="M28.8931 54.1278C27.3977 54.1278 25.9024 53.6293 24.7393 52.6324L20.989 49.4043C20.6093 49.072 19.6598 48.7397 19.1614 48.7397H15.0788C11.5659 48.7397 8.71761 45.8914 8.71761 42.3785V38.3197C8.71761 37.8212 8.38531 36.8955 8.05301 36.5158L4.84867 32.7418C2.90233 30.4394 2.90233 26.8078 4.84867 24.5054L8.05301 20.7314C8.38531 20.3517 8.71761 19.426 8.71761 18.9275V14.8449C8.71761 11.332 11.5659 8.48374 15.0788 8.48374H19.1851C19.6836 8.48374 20.633 8.1277 21.0128 7.81913L24.763 4.59106C27.0891 2.59725 30.7207 2.59725 33.0468 4.59106L36.7971 7.81913C37.1769 8.15144 38.1263 8.48374 38.6248 8.48374H42.6599C46.1728 8.48374 49.0211 11.332 49.0211 14.8449V18.88C49.0211 19.3785 49.3771 20.3279 49.7094 20.7077L52.9375 24.458C54.9313 26.7841 54.9313 30.4157 52.9375 32.7418L49.7094 36.492C49.3771 36.8718 49.0211 37.8212 49.0211 38.3197V42.3548C49.0211 45.8677 46.1728 48.716 42.6599 48.716H38.6248C38.1263 48.716 37.1769 49.072 36.7971 49.3806L33.0468 52.6087C31.8838 53.6293 30.3884 54.1278 28.8931 54.1278ZM15.0788 12.0441C13.536 12.0441 12.278 13.3021 12.278 14.8449V18.9038C12.278 20.2567 11.6371 21.9894 10.7589 23.0101L7.55455 26.7841C6.7238 27.7572 6.7238 29.4425 7.55455 30.4157L10.7589 34.1897C11.6371 35.234 12.278 36.943 12.278 38.296V42.3548C12.278 43.8976 13.536 45.1556 15.0788 45.1556H19.1851C20.5618 45.1556 22.2945 45.7965 23.3389 46.6984L27.0891 49.9265C28.0623 50.7573 29.7713 50.7573 30.7445 49.9265L34.4947 46.6984C35.5391 45.8202 37.2718 45.1556 38.6485 45.1556H42.6836C44.2264 45.1556 45.4844 43.8976 45.4844 42.3548V38.3197C45.4844 36.943 46.1253 35.2103 47.0272 34.1659L50.2553 30.4157C51.0861 29.4425 51.0861 27.7335 50.2553 26.7603L47.0272 23.0101C46.1253 21.9657 45.4844 20.233 45.4844 18.8563V14.8449C45.4844 13.3021 44.2264 12.0441 42.6836 12.0441H38.6485C37.2718 12.0441 35.5391 11.4032 34.4947 10.5013L30.7445 7.27321C29.7713 6.44246 28.0623 6.44246 27.0891 7.27321L23.3389 10.525C22.2945 11.4032 20.5381 12.0441 19.1851 12.0441H15.0788Z" fill="white"/>
</svg>
