<svg width="58" height="57" viewBox="0 0 58 57" fill="none" xmlns="http://www.w3.org/2000/svg">
<path d="M28.7869 32.7286C27.8223 32.7286 27.0225 31.9287 27.0225 30.9641V18.6131C27.0225 17.6485 27.8223 16.8486 28.7869 16.8486C29.7515 16.8486 30.5513 17.6485 30.5513 18.6131V30.9641C30.5513 31.9287 29.7515 32.7286 28.7869 32.7286Z" fill="white"/>
<path d="M28.7867 40.9629C28.1515 40.9629 27.5633 40.7277 27.1163 40.2807C26.9045 40.0455 26.7399 39.7866 26.5988 39.5043C26.4812 39.222 26.4341 38.9162 26.4341 38.6103C26.4341 37.9987 26.6928 37.3869 27.1163 36.94C27.9867 36.0695 29.5866 36.0695 30.4571 36.94C30.8805 37.3869 31.1392 37.9987 31.1392 38.6103C31.1392 38.9162 31.0686 39.222 30.951 39.5043C30.8334 39.7866 30.6688 40.0455 30.4571 40.2807C30.0101 40.7277 29.4219 40.9629 28.7867 40.9629Z" fill="white"/>
<path d="M28.7872 53.9018C27.2109 53.9018 25.6112 53.5018 24.1996 52.6784L10.2253 44.6091C7.40216 42.9623 5.6377 39.9274 5.6377 36.6573V20.5658C5.6377 17.2957 7.40216 14.2608 10.2253 12.614L24.1996 4.54468C27.0227 2.89787 30.5281 2.89787 33.3747 4.54468L47.3491 12.614C50.1722 14.2608 51.9367 17.2957 51.9367 20.5658V36.6573C51.9367 39.9274 50.1722 42.9623 47.3491 44.6091L33.3747 52.6784C31.9632 53.5018 30.3634 53.9018 28.7872 53.9018ZM28.7872 6.85016C27.8226 6.85016 26.8345 7.10896 25.964 7.60301L11.9897 15.6723C10.2488 16.684 9.16657 18.5425 9.16657 20.5658V36.6573C9.16657 38.657 10.2488 40.5392 11.9897 41.5508L25.964 49.6201C27.705 50.6317 29.8694 50.6317 31.5868 49.6201L45.5611 41.5508C47.302 40.5392 48.3842 38.6806 48.3842 36.6573V20.5658C48.3842 18.5661 47.302 16.684 45.5611 15.6723L31.5868 7.60301C30.7398 7.10896 29.7517 6.85016 28.7872 6.85016Z" fill="white"/>
</svg>
