<svg viewBox="0 0 21 21" fill="none" xmlns="http://www.w3.org/2000/svg">
<circle cx="10.5" cy="10.5" r="10.5" fill="url(#paint0_linear)"/>
<path d="M13.3676 11.8156C13.4202 11.3815 13.4596 10.9474 13.4596 10.5001C13.4596 10.0529 13.4202 9.61876 13.3676 9.18466H15.5907C15.6959 9.6056 15.7617 10.0463 15.7617 10.5001C15.7617 10.9539 15.6959 11.3946 15.5907 11.8156H13.3676ZM12.2034 15.4725C12.598 14.7424 12.9006 13.9532 13.111 13.131H15.0513C14.4141 14.2283 13.4031 15.0595 12.2034 15.4725V15.4725ZM12.0389 11.8156H8.96079C8.89502 11.3815 8.85555 10.9474 8.85555 10.5001C8.85555 10.0529 8.89502 9.61218 8.96079 9.18466H12.0389C12.0981 9.61218 12.1442 10.0529 12.1442 10.5001C12.1442 10.9474 12.0981 11.3815 12.0389 11.8156ZM10.4999 15.7356C9.95395 14.9463 9.51328 14.0716 9.24361 13.131H11.7561C11.4865 14.0716 11.0458 14.9463 10.4999 15.7356ZM7.86896 7.86921H5.9484C6.57907 6.76897 7.5893 5.93647 8.78978 5.5277C8.39514 6.25778 8.09917 7.04705 7.86896 7.86921ZM5.9484 13.131H7.86896C8.09917 13.9532 8.39514 14.7424 8.78978 15.4725C7.59181 15.0592 6.58301 14.2279 5.9484 13.131V13.131ZM5.40907 11.8156C5.30383 11.3946 5.23806 10.9539 5.23806 10.5001C5.23806 10.0463 5.30383 9.6056 5.40907 9.18466H7.63218C7.57956 9.61876 7.5401 10.0529 7.5401 10.5001C7.5401 10.9474 7.57956 11.3815 7.63218 11.8156H5.40907ZM10.4999 5.25804C11.0458 6.04731 11.4865 6.92866 11.7561 7.86921H9.24361C9.51328 6.92866 9.95395 6.04731 10.4999 5.25804V5.25804ZM15.0513 7.86921H13.111C12.9052 7.05459 12.6004 6.26823 12.2034 5.5277C13.4136 5.94207 14.4199 6.77738 15.0513 7.86921ZM10.4999 3.92285C6.86264 3.92285 3.92261 6.88262 3.92261 10.5001C3.92261 12.2445 4.61557 13.9175 5.84904 15.1509C6.4598 15.7617 7.18487 16.2462 7.98286 16.5767C8.78085 16.9072 9.63613 17.0774 10.4999 17.0774C12.2443 17.0774 13.9172 16.3844 15.1507 15.1509C16.3842 13.9175 17.0771 12.2445 17.0771 10.5001C17.0771 9.63637 16.907 8.78109 16.5765 7.9831C16.2459 7.18511 15.7614 6.46004 15.1507 5.84929C14.5399 5.23853 13.8149 4.75405 13.0169 4.42352C12.2189 4.09298 11.3636 3.92285 10.4999 3.92285V3.92285Z" fill="#02002B"/>
<defs>
<linearGradient id="paint0_linear" x1="12.5775" y1="32.9796" x2="-3.35437" y2="30.2014" gradientUnits="userSpaceOnUse">
<stop stop-color="#30F874"/>
<stop offset="0.760417" stop-color="#68FFAE"/>
</linearGradient>
</defs>
</svg>
